<svg width="16" height="20" viewBox="0 0 16 20" fill="none" xmlns="http://www.w3.org/2000/svg">
<path d="M11.4298 16.1923C10.3353 16.6411 9.1621 16.8705 7.97787 16.867C6.79364 16.8637 5.6218 16.6277 4.53001 16.1725C4.38588 16.1189 4.24559 16.0559 4.11 15.984C4.06999 15.9643 4.04002 15.9443 4.00001 15.9246V18.8514C3.9985 19.1715 4.15553 19.4718 4.41986 19.655C4.67967 19.8429 5.015 19.8947 5.31983 19.7941L7.9998 18.9011L10.6798 19.7941C10.7836 19.825 10.8912 19.8417 10.9997 19.8436C11.2088 19.8467 11.4128 19.7803 11.5797 19.655C11.8441 19.4718 12.0011 19.1715 11.9996 18.8514V15.9343C11.9596 15.9541 11.9095 15.984 11.8596 16.0038C11.7496 16.0534 11.5797 16.1329 11.4298 16.1923Z" fill="black"/>
<path d="M8.3262 6.86801L7.99959 6.21143L7.67298 6.86835C7.52718 7.16119 7.24543 7.36416 6.9195 7.41085L6.18945 7.51649L6.71778 8.02807C6.95348 8.25597 7.06112 8.58418 7.00588 8.90595L6.88083 9.62882L7.53455 9.28782H7.53471C7.82583 9.13517 8.1742 9.13517 8.46532 9.28782L9.11904 9.62882L8.99399 8.90595C8.93874 8.58421 9.04655 8.25599 9.28209 8.02807L9.81042 7.51649L9.08037 7.41085H9.08054C8.75427 7.36434 8.4722 7.16136 8.3262 6.86801Z" fill="black"/>
<path d="M7.99966 0.000145975C6.18516 -0.000518434 4.4244 0.611232 3.00656 1.73475C1.58882 2.85827 0.598126 4.42679 0.197513 6.18257C-0.203255 7.93844 0.00968608 9.77735 0.801519 11.3975C1.59336 13.0173 2.91665 14.322 4.55438 15.0971C4.67842 15.158 4.81436 15.2192 4.9215 15.2619V15.2617C5.8938 15.6655 6.93686 15.8739 7.99068 15.8751C9.04467 15.8764 10.0882 15.6701 11.0614 15.2687C11.1854 15.219 11.3213 15.1582 11.4285 15.1049V15.1047C13.0695 14.3329 14.3969 13.0296 15.1921 11.4096C15.9874 9.78962 16.2032 7.94922 15.8042 6.19131C15.4052 4.43345 14.4148 2.86264 12.9964 1.73712C11.5777 0.611937 9.81566 -0.000807123 7.9994 7.97927e-07L7.99966 0.000145975ZM12.6572 7.53337L11.0538 9.08458L11.4326 11.2743C11.4748 11.519 11.4231 11.7703 11.2878 11.9789C11.1524 12.1874 10.9433 12.3382 10.7014 12.4013C10.4597 12.4644 10.2027 12.4353 9.98155 12.3199L7.99966 11.2859L6.01776 12.3197V12.3199C5.79662 12.4355 5.53967 12.4647 5.29775 12.4018C5.05568 12.3387 4.84643 12.1878 4.71114 11.9792C4.57571 11.7704 4.52415 11.519 4.56667 11.2743L4.9455 9.08457L3.34211 7.53336C3.16298 7.36028 3.05568 7.12691 3.04162 6.87924C3.02739 6.63142 3.10724 6.3876 3.2656 6.1954C3.4238 6.00339 3.64879 5.87715 3.89622 5.8416L6.11198 5.52186L7.10267 3.52978V3.52961C7.28983 3.21452 7.631 3.02101 7.99964 3.02101C8.36828 3.02101 8.70941 3.21452 8.89661 3.52961L9.8873 5.52169L12.1031 5.84144V5.8416C12.3505 5.87715 12.5755 6.00339 12.7337 6.1954C12.892 6.38758 12.9719 6.63142 12.9577 6.87924C12.9436 7.1269 12.8363 7.36027 12.6572 7.53337Z" fill="black"/>
</svg>
